<svg viewBox="0 0 240 240" xmlns="http://www.w3.org/2000/svg"><defs><filter id="inkCO" x="-35%" y="-35%" width="170%" height="170%"><feTurbulence type="fractalNoise" baseFrequency="0.012 0.017" numOctaves="3" seed="77" result="w"/><feDisplacementMap in="SourceGraphic" in2="w" scale="14" xChannelSelector="R" yChannelSelector="G"/></filter></defs>
<ellipse cx="120" cy="208" rx="62" ry="8" fill="rgba(20,18,16,0.05)"/>
<path d="M56 46 A80 80 0 0 1 184 46" fill="none" stroke="#C96F2B" stroke-width="1.2" opacity="0.3" stroke-linecap="round"/>
<path d="M68 58 A62 62 0 0 1 172 58" fill="none" stroke="#C96F2B" stroke-width="1.7" opacity="0.45" stroke-linecap="round"/>
<g filter="url(#inkCO)">
<path d="M96 50 L144 50 L150 62 C158 66 164 76 166 90 L168 190 C168 196 164 200 158 200 L82 200 C76 200 72 196 72 190 L74 90 C76 76 82 66 90 62 Z" fill="#141210"/>
<path d="M96 50 C96 66 104 76 120 76 C136 76 144 66 144 50 L136 50 C136 60 130 66 120 66 C110 66 104 60 104 50 Z" fill="#141210"/>
<circle cx="64" cy="150" r="2.5" fill="#141210"/>
<circle cx="180" cy="120" r="2" fill="#141210"/>
<circle cx="120" cy="214" r="2" fill="#141210"/>
</g>
<rect x="84" y="120" width="28" height="30" fill="none" stroke="#EAE6DF" stroke-width="1.6" opacity="0.6"/>
<rect x="128" y="120" width="28" height="30" fill="none" stroke="#EAE6DF" stroke-width="1.6" opacity="0.6"/>
<rect x="86" y="90" width="24" height="3" fill="#EAE6DF" opacity="0.5"/>
<rect x="118" y="78" width="4" height="116" fill="#C96F2B"/>
<circle cx="142" cy="96" r="4" fill="#C96F2B"/>
<rect x="128" y="160" width="24" height="10" fill="none" stroke="#C96F2B" stroke-width="1.6"/>
</svg>
