<svg viewBox="0 0 240 240" xmlns="http://www.w3.org/2000/svg"><defs><filter id="inkBA" x="-35%" y="-35%" width="170%" height="170%"><feTurbulence type="fractalNoise" baseFrequency="0.012 0.017" numOctaves="3" seed="97" result="w"/><feDisplacementMap in="SourceGraphic" in2="w" scale="14" xChannelSelector="R" yChannelSelector="G"/></filter></defs>
<ellipse cx="120" cy="196" rx="76" ry="8" fill="rgba(20,18,16,0.05)"/>
<path d="M56 40 A80 80 0 0 1 184 40" fill="none" stroke="#C96F2B" stroke-width="1.2" opacity="0.3" stroke-linecap="round"/>
<path d="M68 52 A62 62 0 0 1 172 52" fill="none" stroke="#C96F2B" stroke-width="1.7" opacity="0.45" stroke-linecap="round"/>
<g filter="url(#inkBA)">
<path d="M88 108 C88 80 100 62 120 62 C140 62 152 80 152 108 L152 114 L88 114 Z" fill="#141210"/>
<path d="M46 116 C68 108 96 104 120 104 C144 104 172 108 194 116 C202 119 202 128 192 130 C170 124 146 121 120 121 C94 121 70 124 48 130 C38 128 38 119 46 116 Z" fill="#141210"/>
<path d="M74 128 C82 148 94 166 104 178" fill="none" stroke="#141210" stroke-width="4"/>
<path d="M166 128 C158 148 146 166 136 178" fill="none" stroke="#141210" stroke-width="4"/>
<circle cx="56" cy="150" r="2.5" fill="#141210"/>
<circle cx="186" cy="142" r="2" fill="#141210"/>
</g>
<path d="M92 96 C102 92 132 92 148 96" fill="none" stroke="#EAE6DF" stroke-width="1.6" opacity="0.5"/>
<circle cx="120" cy="182" r="5" fill="#C96F2B"/>
<path d="M104 178 C110 182 130 182 136 178" fill="none" stroke="#C96F2B" stroke-width="2" opacity="0.7"/>
<rect x="140" y="150" width="22" height="9" fill="none" stroke="#C96F2B" stroke-width="1.6"/>
</svg>
