<svg viewBox="0 0 240 240" xmlns="http://www.w3.org/2000/svg"><defs><filter id="inkZP" x="-35%" y="-35%" width="170%" height="170%"><feTurbulence type="fractalNoise" baseFrequency="0.014 0.02" numOctaves="3" seed="31" result="w"/><feDisplacementMap in="SourceGraphic" in2="w" scale="7" xChannelSelector="R" yChannelSelector="G"/></filter></defs>
<g filter="url(#inkZP)">
<path d="M20 20 L106 20 L106 220 L20 220 Z" fill="#141210"/>
<path d="M134 20 L220 20 L220 220 L134 220 Z" fill="#141210"/>
<circle cx="52" cy="188" r="2.5" fill="#141210"/>
<circle cx="196" cy="60" r="2" fill="#141210"/>
</g>
<g fill="#141210">
<rect x="108" y="24" width="10" height="7"/><rect x="122" y="32" width="10" height="7"/><rect x="108" y="40" width="10" height="7"/><rect x="122" y="48" width="10" height="7"/><rect x="108" y="56" width="10" height="7"/><rect x="122" y="64" width="10" height="7"/><rect x="108" y="72" width="10" height="7"/><rect x="122" y="80" width="10" height="7"/><rect x="108" y="88" width="10" height="7"/><rect x="122" y="96" width="10" height="7"/>
</g>
<path d="M104 104 L136 104 C140 104 142 108 141 112 L134 130 L106 130 L99 112 C98 108 100 104 104 104 Z" fill="#C96F2B" filter="url(#inkZP)"/>
<path d="M112 130 L128 130 L127 196 C127 202 122 206 120 206 C118 206 113 202 113 196 Z" fill="#C96F2B" filter="url(#inkZP)"/>
<rect x="116" y="160" width="8" height="22" rx="4" fill="#EAE6DF" opacity="0.5"/>
<path d="M40 60 C60 56 80 56 100 60" fill="none" stroke="#EAE6DF" stroke-width="1.6" opacity="0.3"/>
<path d="M140 150 C160 146 184 146 204 150" fill="none" stroke="#EAE6DF" stroke-width="1.6" opacity="0.3"/>
</svg>
