<svg viewBox="0 0 240 240" xmlns="http://www.w3.org/2000/svg"><defs><filter id="inkPK" x="-35%" y="-35%" width="170%" height="170%"><feTurbulence type="fractalNoise" baseFrequency="0.014 0.02" numOctaves="3" seed="53" result="w"/><feDisplacementMap in="SourceGraphic" in2="w" scale="7" xChannelSelector="R" yChannelSelector="G"/></filter></defs>
<g filter="url(#inkPK)">
<path d="M16 16 L224 16 L224 224 L16 224 Z" fill="#141210"/>
</g>
<g filter="url(#inkPK)">
<path d="M52 76 L188 76 L188 188 C188 194 184 198 178 198 L62 198 C56 198 52 194 52 188 Z" fill="none" stroke="#EAE6DF" stroke-width="3" opacity="0.55"/>
<path d="M52 108 L188 108" stroke="#EAE6DF" stroke-width="3" opacity="0.55"/>
</g>
<path d="M60 92 L166 92" stroke="#C96F2B" stroke-width="4" filter="url(#inkPK)"/>
<path d="M166 88 L182 92 L166 97 C162 96 162 89 166 88 Z" fill="#C96F2B"/>
<path d="M172 97 L176 118" stroke="#C96F2B" stroke-width="2.4"/>
<circle cx="177" cy="124" r="4.5" fill="#C96F2B"/>
<path d="M40 40 C80 34 160 34 200 40" fill="none" stroke="#EAE6DF" stroke-width="1.6" opacity="0.3"/>
</svg>
