<svg viewBox="0 0 240 240" xmlns="http://www.w3.org/2000/svg"><defs><filter id="inkTA" x="-35%" y="-35%" width="170%" height="170%"><feTurbulence type="fractalNoise" baseFrequency="0.012 0.017" numOctaves="3" seed="58" result="w"/><feDisplacementMap in="SourceGraphic" in2="w" scale="14" xChannelSelector="R" yChannelSelector="G"/></filter></defs>
<ellipse cx="120" cy="212" rx="74" ry="8" fill="rgba(20,18,16,0.05)"/>
<path d="M56 44 A80 80 0 0 1 184 44" fill="none" stroke="#C96F2B" stroke-width="1.2" opacity="0.3" stroke-linecap="round"/>
<path d="M68 56 A62 62 0 0 1 172 56" fill="none" stroke="#C96F2B" stroke-width="1.7" opacity="0.45" stroke-linecap="round"/>
<g filter="url(#inkTA)">
<path d="M120 30 C104 30 96 46 96 62 L144 62 C144 46 136 30 120 30 Z" fill="#141210"/>
<rect x="82" y="64" width="76" height="26" rx="13" fill="#141210"/>
<rect x="76" y="94" width="88" height="26" rx="13" fill="#141210"/>
<rect x="72" y="124" width="96" height="26" rx="13" fill="#141210"/>
<rect x="74" y="154" width="92" height="26" rx="13" fill="#141210"/>
<rect x="78" y="184" width="84" height="22" rx="11" fill="#141210"/>
<path d="M78 70 L54 84 C48 88 46 96 47 104 L52 160 C53 168 58 172 64 170 L72 166 Z" fill="#141210"/>
<path d="M162 70 L186 84 C192 88 194 96 193 104 L188 160 C187 168 182 172 176 170 L168 166 Z" fill="#141210"/>
<circle cx="60" cy="196" r="2.5" fill="#141210"/>
<circle cx="184" cy="188" r="2" fill="#141210"/>
</g>
<circle cx="120" cy="108" r="4.5" fill="#C96F2B"/>
<path d="M120 112 L120 138" stroke="#C96F2B" stroke-width="2"/>
<rect x="132" y="160" width="24" height="10" fill="none" stroke="#C96F2B" stroke-width="1.6"/>
</svg>
