<svg viewBox="0 0 240 240" xmlns="http://www.w3.org/2000/svg"><defs><filter id="inkF1" x="-35%" y="-35%" width="170%" height="170%"><feTurbulence type="fractalNoise" baseFrequency="0.014 0.02" numOctaves="3" seed="71" result="w"/><feDisplacementMap in="SourceGraphic" in2="w" scale="7" xChannelSelector="R" yChannelSelector="G"/></filter></defs>
<ellipse cx="120" cy="216" rx="80" ry="8" fill="rgba(20,18,16,0.05)"/>
<path d="M52 40 A88 88 0 0 1 188 40" fill="none" stroke="#C96F2B" stroke-width="1.2" opacity="0.3" stroke-linecap="round"/>
<path d="M64 52 A70 70 0 0 1 176 52" fill="none" stroke="#C96F2B" stroke-width="1.7" opacity="0.45" stroke-linecap="round"/>
<g filter="url(#inkF1)">
<path d="M36 216 C42 172 64 148 92 140 L148 140 C176 148 198 172 204 216 Z" fill="#141210"/>
<path d="M84 132 C80 84 96 54 120 54 C144 54 160 84 156 132 C155 138 152 142 146 142 L94 142 C88 142 85 138 84 132 Z" fill="#141210"/>
<circle cx="58" cy="160" r="2.5" fill="#141210"/>
<circle cx="186" cy="152" r="2" fill="#141210"/>
<circle cx="120" cy="222" r="2" fill="#141210"/>
</g>
<path d="M86 156 C104 149 136 149 154 156" fill="none" stroke="#EAE6DF" stroke-width="1.6" opacity="0.35"/>
<path d="M104 84 L136 84 C144 84 149 88 149 96 C149 104 144 109 136 109 L104 109 C96 109 91 104 91 96 C91 88 96 84 104 84 Z" fill="#C96F2B"/>
<path d="M100 89 L122 88 L114 105 L98 104 Z" fill="#EAE6DF" opacity="0.45"/>
<path d="M132 89 L141 89 L137 104 L128 103 Z" fill="#EAE6DF" opacity="0.28"/>
<rect x="52" y="182" width="22" height="9" fill="none" stroke="#C96F2B" stroke-width="1.6"/>
</svg>
