<svg viewBox="0 0 240 240" xmlns="http://www.w3.org/2000/svg"><defs><filter id="inkS0" x="-35%" y="-35%" width="170%" height="170%"><feTurbulence type="fractalNoise" baseFrequency="0.014 0.02" numOctaves="3" seed="12" result="w"/><feDisplacementMap in="SourceGraphic" in2="w" scale="7" xChannelSelector="R" yChannelSelector="G"/></filter></defs>
<ellipse cx="120" cy="216" rx="80" ry="8" fill="rgba(20,18,16,0.05)"/>
<path d="M52 40 A88 88 0 0 1 188 40" fill="none" stroke="#C96F2B" stroke-width="1.2" opacity="0.3" stroke-linecap="round"/>
<path d="M64 52 A70 70 0 0 1 176 52" fill="none" stroke="#C96F2B" stroke-width="1.7" opacity="0.45" stroke-linecap="round"/>
<g filter="url(#inkS0)">
<path d="M36 216 C42 172 64 148 92 140 L148 140 C176 148 198 172 204 216 Z" fill="#141210"/>
<path d="M92 130 C90 92 100 68 120 68 C140 68 150 92 148 130 C147 137 144 142 138 142 L102 142 C96 142 93 137 92 130 Z" fill="#141210"/>
<path d="M86 78 C94 68 106 62 120 62 C134 62 146 68 154 78 C158 84 154 90 148 88 C140 84 130 82 120 82 C110 82 100 84 92 88 C86 90 82 84 86 78 Z" fill="#141210"/>
<circle cx="58" cy="160" r="2.5" fill="#141210"/>
<circle cx="186" cy="152" r="2" fill="#141210"/>
<circle cx="120" cy="222" r="2" fill="#141210"/>
</g>
<path d="M86 156 C104 149 136 149 154 156" fill="none" stroke="#EAE6DF" stroke-width="1.6" opacity="0.35"/>
<path d="M106 92 L134 92 C141 92 145 96 145 103 C145 110 141 114 134 114 L106 114 C99 114 95 110 95 103 C95 96 99 92 106 92 Z" fill="#C96F2B"/>
<path d="M102 96 L122 95 L114 111 L100 110 Z" fill="#EAE6DF" opacity="0.45"/>
<circle cx="120" cy="72" r="3.5" fill="#C96F2B"/>
<path d="M120 158 L120 210" stroke="#C96F2B" stroke-width="2.2" opacity="0.9"/>
<rect x="52" y="182" width="22" height="9" fill="none" stroke="#C96F2B" stroke-width="1.6"/>
</svg>
