<svg viewBox="0 0 240 240" xmlns="http://www.w3.org/2000/svg"><defs><filter id="ink131" x="-35%" y="-35%" width="170%" height="170%"><feTurbulence type="fractalNoise" baseFrequency="0.014 0.02" numOctaves="3" seed="131" result="w"/><feDisplacementMap in="SourceGraphic" in2="w" scale="7" xChannelSelector="R" yChannelSelector="G"/></filter></defs>
<ellipse cx="120" cy="214" rx="72" ry="8" fill="rgba(20,18,16,0.05)"/>
<path d="M56 44 A80 80 0 0 1 184 44" fill="none" stroke="#C96F2B" stroke-width="1.2" opacity="0.3" stroke-linecap="round"/>
<path d="M68 56 A62 62 0 0 1 172 56" fill="none" stroke="#C96F2B" stroke-width="1.7" opacity="0.45" stroke-linecap="round"/>
<g filter="url(#ink131)">
<path d="M84 44 L156 44 L158 60 L82 60 Z" fill="#141210"/>
<path d="M82 62 L118 62 L114 130 L120 206 L84 206 L92 130 Z" fill="#141210"/>
<path d="M122 62 L158 62 L148 130 L156 206 L120 206 L126 130 Z" fill="#141210"/>
<circle cx="68" cy="120" r="2.5" fill="#141210"/><circle cx="176" cy="150" r="2" fill="#141210"/>
</g>
<path d="M92 84 C98 78 106 88 112 82" fill="none" stroke="#EAE6DF" stroke-width="3.5" opacity="0.5" stroke-linecap="round"/>
<path d="M128 100 C134 94 142 104 148 98" fill="none" stroke="#EAE6DF" stroke-width="3.5" opacity="0.4" stroke-linecap="round"/>
<path d="M96 160 C100 156 106 162 110 158" fill="none" stroke="#EAE6DF" stroke-width="3" opacity="0.35" stroke-linecap="round"/>
<path d="M86 52 L120 52" stroke="#C96F2B" stroke-width="3" opacity="0.9"/><circle cx="124" cy="52" r="3.5" fill="#C96F2B"/>
<rect x="130" y="170" width="22" height="9" fill="none" stroke="#C96F2B" stroke-width="1.6"/></svg>
