<svg viewBox="0 0 240 240" xmlns="http://www.w3.org/2000/svg"><defs><filter id="ink127" x="-35%" y="-35%" width="170%" height="170%"><feTurbulence type="fractalNoise" baseFrequency="0.014 0.02" numOctaves="3" seed="127" result="w"/><feDisplacementMap in="SourceGraphic" in2="w" scale="7" xChannelSelector="R" yChannelSelector="G"/></filter></defs>
<ellipse cx="120" cy="214" rx="72" ry="8" fill="rgba(20,18,16,0.05)"/>
<path d="M56 44 A80 80 0 0 1 184 44" fill="none" stroke="#C96F2B" stroke-width="1.2" opacity="0.3" stroke-linecap="round"/>
<path d="M68 56 A62 62 0 0 1 172 56" fill="none" stroke="#C96F2B" stroke-width="1.7" opacity="0.45" stroke-linecap="round"/>
<g filter="url(#ink127)">
<path d="M120 42 C102 42 94 56 94 70 L146 70 C146 56 138 42 120 42 Z" fill="#141210"/>
<path d="M86 70 L154 70 C166 76 172 88 172 102 L172 186 C172 194 166 200 158 200 L82 200 C74 200 68 194 68 186 L68 102 C68 88 74 76 86 70 Z" fill="#141210"/>
<path d="M74 78 L54 92 L46 160 C45 168 50 172 57 170 L68 164 Z" fill="#141210"/>
<path d="M166 78 L186 92 L194 160 C195 168 190 172 183 170 L172 164 Z" fill="#141210"/>
<circle cx="58" cy="185" r="2.5" fill="#141210"/><circle cx="184" cy="188" r="2" fill="#141210"/>
</g>
<path d="M92 108 C104 100 118 112 130 104 C138 100 146 108 150 104" fill="none" stroke="#EAE6DF" stroke-width="4" opacity="0.55" stroke-linecap="round"/>
<path d="M94 126 C108 120 124 130 146 122" fill="none" stroke="#EAE6DF" stroke-width="4" opacity="0.4" stroke-linecap="round"/>
<rect x="118" y="72" width="4" height="124" fill="#C96F2B"/><circle cx="120" cy="82" r="4" fill="#C96F2B"/>
<rect x="138" y="160" width="24" height="10" fill="none" stroke="#C96F2B" stroke-width="1.6"/></svg>
