<svg viewBox="0 0 240 240" xmlns="http://www.w3.org/2000/svg"><defs><filter id="inkS1" x="-35%" y="-35%" width="170%" height="170%"><feTurbulence type="fractalNoise" baseFrequency="0.014 0.02" numOctaves="3" seed="29" result="w"/><feDisplacementMap in="SourceGraphic" in2="w" scale="7" xChannelSelector="R" yChannelSelector="G"/></filter></defs>
<ellipse cx="120" cy="216" rx="80" ry="8" fill="rgba(20,18,16,0.05)"/>
<path d="M52 38 A88 88 0 0 1 188 38" fill="none" stroke="#C96F2B" stroke-width="1.2" opacity="0.3" stroke-linecap="round"/>
<path d="M64 50 A70 70 0 0 1 176 50" fill="none" stroke="#C96F2B" stroke-width="1.7" opacity="0.45" stroke-linecap="round"/>
<g filter="url(#inkS1)">
<path d="M36 216 C42 172 64 148 92 140 L148 140 C176 148 198 172 204 216 Z" fill="#141210"/>
<path d="M94 130 C92 96 102 76 120 76 C138 76 148 96 146 130 C145 137 142 142 136 142 L104 142 C98 142 95 137 94 130 Z" fill="#141210"/>
<path d="M92 84 C92 62 104 48 120 48 C136 48 148 62 148 84 L148 88 L92 90 Z" fill="#141210"/>
<path d="M66 86 C82 78 158 76 174 86 C182 90 182 98 174 99 L66 101 C58 100 58 90 66 86 Z" fill="#141210"/>
<path d="M56 178 L188 178 L186 190 L58 190 Z" fill="#141210"/>
<path d="M50 152 L194 152 L192 164 L52 164 Z" fill="#141210"/>
<circle cx="58" cy="132" r="2.5" fill="#141210"/>
<circle cx="186" cy="140" r="2" fill="#141210"/>
<circle cx="120" cy="222" r="2" fill="#141210"/>
</g>
<path d="M106 106 L134 106 C141 106 145 110 145 117 C145 124 141 128 134 128 L106 128 C99 128 95 124 95 117 C95 110 99 106 106 106 Z" fill="#C96F2B"/>
<path d="M102 110 L122 109 L114 125 L100 124 Z" fill="#EAE6DF" opacity="0.45"/>
<circle cx="120" cy="200" r="3.5" fill="#C96F2B"/>
<rect x="164" y="198" width="22" height="9" fill="none" stroke="#C96F2B" stroke-width="1.6"/>
</svg>
