<svg viewBox="0 0 240 240" xmlns="http://www.w3.org/2000/svg"><defs><filter id="inkPL" x="-35%" y="-35%" width="170%" height="170%"><feTurbulence type="fractalNoise" baseFrequency="0.02 0.03" numOctaves="3" seed="47" result="w"/><feDisplacementMap in="SourceGraphic" in2="w" scale="9" xChannelSelector="R" yChannelSelector="G"/></filter></defs>
<g filter="url(#inkPL)">
<path d="M18 30 C90 14 150 14 222 30 L222 210 C150 226 90 226 18 210 Z" fill="#141210"/>
</g>
<g fill="#EAE6DF" opacity="0.5" filter="url(#inkPL)">
<circle cx="52" cy="60" r="4"/><circle cx="90" cy="48" r="3.4"/><circle cx="132" cy="62" r="4"/><circle cx="176" cy="50" r="3.2"/><circle cx="200" cy="76" r="3.8"/>
<circle cx="40" cy="100" r="3.4"/><circle cx="78" cy="92" r="4"/><circle cx="118" cy="102" r="3.2"/><circle cx="158" cy="92" r="4"/><circle cx="196" cy="112" r="3.4"/>
<circle cx="56" cy="142" r="4"/><circle cx="96" cy="134" r="3.2"/><circle cx="136" cy="146" r="4"/><circle cx="178" cy="140" r="3.4"/>
<circle cx="44" cy="182" r="3.4"/><circle cx="84" cy="176" r="4"/><circle cx="126" cy="186" r="3.2"/><circle cx="166" cy="178" r="4"/><circle cx="200" cy="192" r="3.2"/>
</g>
<path d="M120 30 L120 120" stroke="#C96F2B" stroke-width="4" filter="url(#inkPL)"/>
<circle cx="120" cy="126" r="6.5" fill="#C96F2B"/>
</svg>
