<svg viewBox="0 0 240 240" xmlns="http://www.w3.org/2000/svg"><defs><filter id="inkS4" x="-35%" y="-35%" width="170%" height="170%"><feTurbulence type="fractalNoise" baseFrequency="0.012 0.017" numOctaves="3" seed="37" result="w"/><feDisplacementMap in="SourceGraphic" in2="w" scale="17" xChannelSelector="R" yChannelSelector="G"/></filter><filter id="gS4" x="-120%" y="-120%" width="340%" height="340%"><feGaussianBlur stdDeviation="5"/></filter></defs><ellipse cx="120" cy="212" rx="66" ry="8" fill="rgba(20,18,16,0.05)"/><g filter="url(#inkS4)"><rect x="58" y="176" width="124" height="30" rx="3" fill="#141210"/><rect x="66" y="146" width="108" height="24" rx="3" fill="#141210"/><rect x="82" y="96" width="76" height="20" rx="3" fill="#141210"/><rect x="92" y="72" width="56" height="16" rx="3" fill="#141210"/><circle cx="50" cy="160" r="2.4" fill="#141210"/><circle cx="190" cy="190" r="2.6" fill="#141210"/></g><rect x="72" y="122" width="96" height="16" rx="3" fill="#C96F2B" opacity="0.32" filter="url(#gS4)"/><rect x="74" y="124" width="92" height="12" rx="2.5" fill="#C96F2B"/><path d="M46 130 L64 130" stroke="#C96F2B" stroke-width="1.8" opacity="0.6" stroke-linecap="round"/><path d="M176 130 L196 130" stroke="#C96F2B" stroke-width="1.8" opacity="0.6" stroke-linecap="round"/><path d="M100 52 A48 14 0 0 1 140 52" fill="none" stroke="#C96F2B" stroke-width="1.3" opacity="0.35" stroke-linecap="round"/></svg>
