<svg viewBox="0 0 1400 1400" xmlns="http://www.w3.org/2000/svg"><defs><radialGradient id="disc" cx="42%" cy="38%" r="72%"><stop offset="0%" stop-color="#211c17"/><stop offset="55%" stop-color="#17130e"/><stop offset="100%" stop-color="#0c0a07"/></radialGradient><linearGradient id="sheen" x1="0" y1="0" x2="1" y2="1"><stop offset="0%" stop-color="#fff" stop-opacity="0.10"/><stop offset="40%" stop-color="#fff" stop-opacity="0"/><stop offset="60%" stop-color="#fff" stop-opacity="0"/><stop offset="100%" stop-color="#fff" stop-opacity="0.05"/></linearGradient><radialGradient id="lbl" cx="46%" cy="40%" r="60%"><stop offset="0%" stop-color="#5B9BD5"/><stop offset="100%" stop-color="#2E6FB0"/></radialGradient></defs><rect width="1400" height="1400" fill="#EAE6DF"/><rect x="46" y="46" width="1308" height="1308" fill="none" stroke="#141210" stroke-opacity="0.14" stroke-width="2"/><text x="120" y="118" font-family="Courier New, monospace" font-size="24" letter-spacing="8" fill="#6E675E">AMR</text><text x="1280" y="118" font-family="Courier New, monospace" font-size="24" letter-spacing="8" fill="#2E6FB0" text-anchor="end">MMXXVI</text><ellipse cx="700.0" cy="1204.0" rx="448.0" ry="26" fill="#141210" opacity="0.06"/><circle cx="700.0" cy="700.0" r="560" fill="url(#disc)"/><circle cx="700.0" cy="700.0" r="200.0" fill="none" stroke="#3a332b" stroke-width="1.2" opacity="0.50"/><circle cx="700.0" cy="700.0" r="206.5" fill="none" stroke="#3a332b" stroke-width="1.2" opacity="0.25"/><circle cx="700.0" cy="700.0" r="213.0" fill="none" stroke="#3a332b" stroke-width="1.2" opacity="0.50"/><circle cx="700.0" cy="700.0" r="219.5" fill="none" stroke="#3a332b" stroke-width="1.2" opacity="0.25"/><circle cx="700.0" cy="700.0" r="226.0" fill="none" stroke="#3a332b" stroke-width="1.2" opacity="0.50"/><circle cx="700.0" cy="700.0" r="232.5" fill="none" stroke="#3a332b" stroke-width="1.2" opacity="0.25"/><circle cx="700.0" cy="700.0" r="239.0" fill="none" stroke="#3a332b" stroke-width="1.2" opacity="0.50"/><circle cx="700.0" cy="700.0" r="245.5" fill="none" stroke="#3a332b" stroke-width="1.2" opacity="0.25"/><circle cx="700.0" cy="700.0" r="252.0" fill="none" stroke="#3a332b" stroke-width="1.2" opacity="0.50"/><circle cx="700.0" cy="700.0" r="258.5" fill="none" stroke="#3a332b" stroke-width="1.2" opacity="0.25"/><circle cx="700.0" cy="700.0" r="265.0" fill="none" stroke="#3a332b" stroke-width="1.2" opacity="0.50"/><circle cx="700.0" cy="700.0" r="271.5" fill="none" stroke="#3a332b" stroke-width="1.2" opacity="0.25"/><circle cx="700.0" cy="700.0" r="278.0" fill="none" stroke="#3a332b" stroke-width="1.2" opacity="0.50"/><circle cx="700.0" cy="700.0" r="284.5" fill="none" stroke="#3a332b" stroke-width="1.2" opacity="0.25"/><circle cx="700.0" cy="700.0" r="291.0" fill="none" stroke="#3a332b" stroke-width="1.2" opacity="0.50"/><circle cx="700.0" cy="700.0" r="297.5" fill="none" stroke="#3a332b" stroke-width="1.2" opacity="0.25"/><circle cx="700.0" cy="700.0" r="304.0" fill="none" stroke="#3a332b" stroke-width="1.2" opacity="0.50"/><circle cx="700.0" cy="700.0" r="310.5" fill="none" stroke="#3a332b" stroke-width="1.2" opacity="0.25"/><circle cx="700.0" cy="700.0" r="317.0" fill="none" stroke="#3a332b" stroke-width="1.2" opacity="0.50"/><circle cx="700.0" cy="700.0" r="323.5" fill="none" stroke="#3a332b" stroke-width="1.2" opacity="0.25"/><circle cx="700.0" cy="700.0" r="330.0" fill="none" stroke="#3a332b" stroke-width="1.2" opacity="0.50"/><circle cx="700.0" cy="700.0" r="336.5" fill="none" stroke="#3a332b" stroke-width="1.2" opacity="0.25"/><circle cx="700.0" cy="700.0" r="343.0" fill="none" stroke="#3a332b" stroke-width="1.2" opacity="0.50"/><circle cx="700.0" cy="700.0" r="349.5" fill="none" stroke="#3a332b" stroke-width="1.2" opacity="0.25"/><circle cx="700.0" cy="700.0" r="356.0" fill="none" stroke="#3a332b" stroke-width="1.2" opacity="0.50"/><circle cx="700.0" cy="700.0" r="362.5" fill="none" stroke="#3a332b" stroke-width="1.2" opacity="0.25"/><circle cx="700.0" cy="700.0" r="369.0" fill="none" stroke="#3a332b" stroke-width="1.2" opacity="0.50"/><circle cx="700.0" cy="700.0" r="375.5" fill="none" stroke="#3a332b" stroke-width="1.2" opacity="0.25"/><circle cx="700.0" cy="700.0" r="382.0" fill="none" stroke="#3a332b" stroke-width="1.2" opacity="0.50"/><circle cx="700.0" cy="700.0" r="388.5" fill="none" stroke="#3a332b" stroke-width="1.2" opacity="0.25"/><circle cx="700.0" cy="700.0" r="395.0" fill="none" stroke="#3a332b" stroke-width="1.2" opacity="0.50"/><circle cx="700.0" cy="700.0" r="401.5" fill="none" stroke="#3a332b" stroke-width="1.2" opacity="0.25"/><circle cx="700.0" cy="700.0" r="408.0" fill="none" stroke="#3a332b" stroke-width="1.2" opacity="0.50"/><circle cx="700.0" cy="700.0" r="414.5" fill="none" stroke="#3a332b" stroke-width="1.2" opacity="0.25"/><circle cx="700.0" cy="700.0" r="421.0" fill="none" stroke="#3a332b" stroke-width="1.2" opacity="0.50"/><circle cx="700.0" cy="700.0" r="427.5" fill="none" stroke="#3a332b" stroke-width="1.2" opacity="0.25"/><circle cx="700.0" cy="700.0" r="434.0" fill="none" stroke="#3a332b" stroke-width="1.2" opacity="0.50"/><circle cx="700.0" cy="700.0" r="440.5" fill="none" stroke="#3a332b" stroke-width="1.2" opacity="0.25"/><circle cx="700.0" cy="700.0" r="447.0" fill="none" stroke="#3a332b" stroke-width="1.2" opacity="0.50"/><circle cx="700.0" cy="700.0" r="453.5" fill="none" stroke="#3a332b" stroke-width="1.2" opacity="0.25"/><circle cx="700.0" cy="700.0" r="460.0" fill="none" stroke="#3a332b" stroke-width="1.2" opacity="0.50"/><circle cx="700.0" cy="700.0" r="466.5" fill="none" stroke="#3a332b" stroke-width="1.2" opacity="0.25"/><circle cx="700.0" cy="700.0" r="473.0" fill="none" stroke="#3a332b" stroke-width="1.2" opacity="0.50"/><circle cx="700.0" cy="700.0" r="479.5" fill="none" stroke="#3a332b" stroke-width="1.2" opacity="0.25"/><circle cx="700.0" cy="700.0" r="486.0" fill="none" stroke="#3a332b" stroke-width="1.2" opacity="0.50"/><circle cx="700.0" cy="700.0" r="492.5" fill="none" stroke="#3a332b" stroke-width="1.2" opacity="0.25"/><circle cx="700.0" cy="700.0" r="499.0" fill="none" stroke="#3a332b" stroke-width="1.2" opacity="0.50"/><circle cx="700.0" cy="700.0" r="505.5" fill="none" stroke="#3a332b" stroke-width="1.2" opacity="0.25"/><circle cx="700.0" cy="700.0" r="512.0" fill="none" stroke="#3a332b" stroke-width="1.2" opacity="0.50"/><circle cx="700.0" cy="700.0" r="518.5" fill="none" stroke="#3a332b" stroke-width="1.2" opacity="0.25"/><circle cx="700.0" cy="700.0" r="525.0" fill="none" stroke="#3a332b" stroke-width="1.2" opacity="0.50"/><circle cx="700.0" cy="700.0" r="531.5" fill="none" stroke="#3a332b" stroke-width="1.2" opacity="0.25"/><circle cx="700.0" cy="700.0" r="538.0" fill="none" stroke="#3a332b" stroke-width="1.2" opacity="0.50"/><circle cx="700.0" cy="700.0" r="544.5" fill="none" stroke="#3a332b" stroke-width="1.2" opacity="0.25"/><circle cx="700.0" cy="700.0" r="551.0" fill="none" stroke="#3a332b" stroke-width="1.2" opacity="0.50"/><circle cx="700.0" cy="700.0" r="414" fill="none" stroke="#2E6FB0" stroke-width="2.5" opacity="0.55"/><circle cx="700.0" cy="700.0" r="560" fill="url(#sheen)"/><circle cx="700.0" cy="700.0" r="212" fill="none" stroke="#0c0a07" stroke-width="6"/><circle cx="700.0" cy="700.0" r="205" fill="url(#lbl)"/><circle cx="700.0" cy="700.0" r="205" fill="none" stroke="#1a4a7a" stroke-width="2"/><path id="atop" d="M 540.0 700.0 A 160 160 0 0 1 860.0 700.0" fill="none"/><text font-family="Courier New, monospace" font-size="23" letter-spacing="8" fill="#EAE6DF" opacity="0.9"><textPath href="#atop" startOffset="50%" text-anchor="middle">IN SYNC · MMXV</textPath></text><text x="700.0" y="694.0" font-family="Georgia, serif" font-weight="bold" font-size="82" letter-spacing="2" fill="#EAE6DF" text-anchor="middle">TULUM</text><text x="700.0" y="744.0" font-family="Courier New, monospace" font-size="22" letter-spacing="4" fill="#EAE6DF" opacity="0.85" text-anchor="middle">16 TRACKS · 111:44</text><path id="abot" d="M 540.0 700.0 A 160 160 0 0 0 860.0 700.0" fill="none"/><text font-family="Courier New, monospace" font-size="21" letter-spacing="6" fill="#EAE6DF" opacity="0.7"><textPath href="#abot" startOffset="50%" text-anchor="middle">AMR — MORELIA</textPath></text><circle cx="700.0" cy="700.0" r="17" fill="#EAE6DF"/></svg>