<svg viewBox="0 0 240 240" xmlns="http://www.w3.org/2000/svg"><defs><filter id="inkP1" x="-35%" y="-35%" width="170%" height="170%"><feTurbulence type="fractalNoise" baseFrequency="0.012 0.017" numOctaves="3" seed="7" result="w"/><feDisplacementMap in="SourceGraphic" in2="w" scale="17" xChannelSelector="R" yChannelSelector="G"/></filter><filter id="gP1" x="-120%" y="-120%" width="340%" height="340%"><feGaussianBlur stdDeviation="6"/></filter></defs><ellipse cx="120" cy="212" rx="62" ry="8" fill="rgba(20,18,16,0.05)"/><g filter="url(#inkP1)"><rect x="74" y="150" width="92" height="58" rx="4" fill="#141210"/><rect x="86" y="138" width="68" height="12" rx="2" fill="#141210"/><rect x="94" y="196" width="52" height="12" fill="#141210" opacity="0.0"/><circle cx="64" cy="176" r="2.6" fill="#141210"/><circle cx="176" cy="160" r="2.2" fill="#141210"/></g><circle cx="120" cy="96" r="34" fill="#C96F2B" opacity="0.38" filter="url(#gP1)"/><circle cx="120" cy="96" r="17" fill="#C96F2B"/><circle cx="120" cy="96" r="6.6" fill="#141210"/><path d="M94 78 A34 34 0 0 1 146 78" fill="none" stroke="#C96F2B" stroke-width="2" opacity="0.55" stroke-linecap="round"/><path d="M85 68 A46 46 0 0 1 155 68" fill="none" stroke="#C96F2B" stroke-width="1.5" opacity="0.4" stroke-linecap="round"/><path d="M77 57 A58 58 0 0 1 163 57" fill="none" stroke="#C96F2B" stroke-width="1.1" opacity="0.26" stroke-linecap="round"/></svg>
