<svg viewBox="0 0 240 240" xmlns="http://www.w3.org/2000/svg"><defs><filter id="inkV3" x="-35%" y="-35%" width="170%" height="170%"><feTurbulence type="fractalNoise" baseFrequency="0.012 0.017" numOctaves="3" seed="23" result="w"/><feDisplacementMap in="SourceGraphic" in2="w" scale="17" xChannelSelector="R" yChannelSelector="G"/></filter><filter id="gV3" x="-120%" y="-120%" width="340%" height="340%"><feGaussianBlur stdDeviation="5"/></filter></defs><ellipse cx="120" cy="212" rx="50" ry="8" fill="rgba(20,18,16,0.05)"/><g filter="url(#inkV3)"><path d="M96 62 C96 84 78 96 78 132 C78 174 96 204 120 204 C144 204 162 174 162 132 C162 96 144 84 144 62 Z" fill="#141210"/><circle cx="70" cy="110" r="2.4" fill="#141210"/><circle cx="172" cy="154" r="2.6" fill="#141210"/></g><ellipse cx="120" cy="58" rx="30" ry="8" fill="#C96F2B" opacity="0.38" filter="url(#gV3)"/><ellipse cx="120" cy="58" rx="24" ry="6" fill="none" stroke="#C96F2B" stroke-width="2.4"/><circle cx="120" cy="132" r="4" fill="#C96F2B"/><circle cx="120" cy="150" r="2.6" fill="#C96F2B" opacity="0.6"/><circle cx="120" cy="164" r="1.8" fill="#C96F2B" opacity="0.35"/><path d="M92 44 A38 12 0 0 1 148 44" fill="none" stroke="#C96F2B" stroke-width="1.4" opacity="0.4" stroke-linecap="round"/></svg>
