<svg viewBox="0 0 240 240" xmlns="http://www.w3.org/2000/svg"><defs><filter id="inkTP" x="-35%" y="-35%" width="170%" height="170%"><feTurbulence type="fractalNoise" baseFrequency="0.012 0.017" numOctaves="3" seed="79" result="w"/><feDisplacementMap in="SourceGraphic" in2="w" scale="17" xChannelSelector="R" yChannelSelector="G"/></filter></defs><ellipse cx="120" cy="206" rx="66" ry="8" fill="rgba(20,18,16,0.05)"/><g filter="url(#inkTP)"><rect x="52" y="96" width="136" height="72" rx="6" fill="#141210"/><circle cx="44" cy="132" r="2.4" fill="#141210"/><circle cx="196" cy="150" r="2.6" fill="#141210"/></g><g filter="url(#inkTP)"><rect x="60" y="128" width="15" height="34" rx="2" fill="#EAE6DF"/><rect x="78" y="128" width="15" height="34" rx="2" fill="#EAE6DF"/><rect x="96" y="128" width="15" height="34" rx="2" fill="#2E6FB0"/><rect x="114" y="128" width="15" height="34" rx="2" fill="#EAE6DF"/><rect x="132" y="128" width="15" height="34" rx="2" fill="#2E6FB0"/><rect x="150" y="128" width="15" height="34" rx="2" fill="#EAE6DF"/><rect x="168" y="128" width="14" height="34" rx="2" fill="#EAE6DF"/></g><path d="M84 74 C92 60 104 56 112 62 M124 66 C132 52 144 48 152 54" fill="none" stroke="#2E6FB0" stroke-width="2.4" opacity="0.65" stroke-linecap="round" filter="url(#inkTP)"/></svg>
