<svg viewBox="0 0 240 240" xmlns="http://www.w3.org/2000/svg"><defs><filter id="inkTS" x="-35%" y="-35%" width="170%" height="170%"><feTurbulence type="fractalNoise" baseFrequency="0.012 0.017" numOctaves="3" seed="73" result="w"/><feDisplacementMap in="SourceGraphic" in2="w" scale="17" xChannelSelector="R" yChannelSelector="G"/></filter><filter id="gTS" x="-120%" y="-120%" width="340%" height="340%"><feGaussianBlur stdDeviation="6"/></filter></defs><ellipse cx="120" cy="212" rx="62" ry="8" fill="rgba(20,18,16,0.05)"/><g filter="url(#inkTS)"><path d="M84 200 C76 168 78 138 84 116 C88 100 96 96 100 112 C104 130 102 166 98 200 Z" fill="#141210"/><circle cx="91" cy="86" r="14" fill="#141210"/><path d="M142 200 C134 168 136 138 142 116 C146 100 154 96 158 112 C162 130 160 166 156 200 Z" fill="#141210"/><circle cx="149" cy="86" r="14" fill="#141210"/></g><circle cx="120" cy="120" r="44" fill="#2E6FB0" opacity="0.22" filter="url(#gTS)"/><path d="M96 140 C104 132 112 132 120 140 C128 148 136 148 144 140" fill="none" stroke="#2E6FB0" stroke-width="3" stroke-linecap="round"/><path d="M96 156 C104 148 112 148 120 156 C128 164 136 164 144 156" fill="none" stroke="#2E6FB0" stroke-width="2.2" opacity="0.6" stroke-linecap="round"/><path d="M96 124 C104 116 112 116 120 124 C128 132 136 132 144 124" fill="none" stroke="#2E6FB0" stroke-width="2.2" opacity="0.6" stroke-linecap="round"/></svg>
