<svg viewBox="0 0 1000 1000" xmlns="http://www.w3.org/2000/svg"><defs><radialGradient id="disc" cx="42%" cy="38%" r="75%"><stop offset="0%" stop-color="#221d18"/><stop offset="55%" stop-color="#18140f"/><stop offset="100%" stop-color="#0e0b08"/></radialGradient><linearGradient id="sheen" x1="0" y1="0" x2="1" y2="1"><stop offset="0%" stop-color="#ffffff" stop-opacity="0.10"/><stop offset="38%" stop-color="#ffffff" stop-opacity="0"/><stop offset="62%" stop-color="#ffffff" stop-opacity="0"/><stop offset="100%" stop-color="#ffffff" stop-opacity="0.05"/></linearGradient><radialGradient id="lblg" cx="50%" cy="50%" r="50%"><stop offset="0%" stop-color="#C24C5C"/><stop offset="100%" stop-color="#A62D3E"/></radialGradient></defs><rect width="1000" height="1000" fill="#EAE6DF"/><circle cx="500" cy="500" r="496" fill="url(#disc)"/><circle cx="500" cy="500" r="210.0" fill="none" stroke="#3a332b" stroke-width="1.1" opacity="0.55"/><circle cx="500" cy="500" r="216.5" fill="none" stroke="#3a332b" stroke-width="1.1" opacity="0.28"/><circle cx="500" cy="500" r="223.0" fill="none" stroke="#3a332b" stroke-width="1.1" opacity="0.55"/><circle cx="500" cy="500" r="229.5" fill="none" stroke="#3a332b" stroke-width="1.1" opacity="0.28"/><circle cx="500" cy="500" r="236.0" fill="none" stroke="#3a332b" stroke-width="1.1" opacity="0.55"/><circle cx="500" cy="500" r="242.5" fill="none" stroke="#3a332b" stroke-width="1.1" opacity="0.28"/><circle cx="500" cy="500" r="249.0" fill="none" stroke="#3a332b" stroke-width="1.1" opacity="0.55"/><circle cx="500" cy="500" r="255.5" fill="none" stroke="#3a332b" stroke-width="1.1" opacity="0.28"/><circle cx="500" cy="500" r="262.0" fill="none" stroke="#3a332b" stroke-width="1.1" opacity="0.55"/><circle cx="500" cy="500" r="268.5" fill="none" stroke="#3a332b" stroke-width="1.1" opacity="0.28"/><circle cx="500" cy="500" r="275.0" fill="none" stroke="#3a332b" stroke-width="1.1" opacity="0.55"/><circle cx="500" cy="500" r="281.5" fill="none" stroke="#3a332b" stroke-width="1.1" opacity="0.28"/><circle cx="500" cy="500" r="288.0" fill="none" stroke="#3a332b" stroke-width="1.1" opacity="0.55"/><circle cx="500" cy="500" r="294.5" fill="none" stroke="#3a332b" stroke-width="1.1" opacity="0.28"/><circle cx="500" cy="500" r="301.0" fill="none" stroke="#3a332b" stroke-width="1.1" opacity="0.55"/><circle cx="500" cy="500" r="307.5" fill="none" stroke="#3a332b" stroke-width="1.1" opacity="0.28"/><circle cx="500" cy="500" r="314.0" fill="none" stroke="#3a332b" stroke-width="1.1" opacity="0.55"/><circle cx="500" cy="500" r="320.5" fill="none" stroke="#3a332b" stroke-width="1.1" opacity="0.28"/><circle cx="500" cy="500" r="327.0" fill="none" stroke="#3a332b" stroke-width="1.1" opacity="0.55"/><circle cx="500" cy="500" r="333.5" fill="none" stroke="#3a332b" stroke-width="1.1" opacity="0.28"/><circle cx="500" cy="500" r="340.0" fill="none" stroke="#3a332b" stroke-width="1.1" opacity="0.55"/><circle cx="500" cy="500" r="346.5" fill="none" stroke="#3a332b" stroke-width="1.1" opacity="0.28"/><circle cx="500" cy="500" r="353.0" fill="none" stroke="#3a332b" stroke-width="1.1" opacity="0.55"/><circle cx="500" cy="500" r="359.5" fill="none" stroke="#3a332b" stroke-width="1.1" opacity="0.28"/><circle cx="500" cy="500" r="366.0" fill="none" stroke="#3a332b" stroke-width="1.1" opacity="0.55"/><circle cx="500" cy="500" r="372.5" fill="none" stroke="#3a332b" stroke-width="1.1" opacity="0.28"/><circle cx="500" cy="500" r="379.0" fill="none" stroke="#3a332b" stroke-width="1.1" opacity="0.55"/><circle cx="500" cy="500" r="385.5" fill="none" stroke="#3a332b" stroke-width="1.1" opacity="0.28"/><circle cx="500" cy="500" r="392.0" fill="none" stroke="#3a332b" stroke-width="1.1" opacity="0.55"/><circle cx="500" cy="500" r="398.5" fill="none" stroke="#3a332b" stroke-width="1.1" opacity="0.28"/><circle cx="500" cy="500" r="405.0" fill="none" stroke="#3a332b" stroke-width="1.1" opacity="0.55"/><circle cx="500" cy="500" r="411.5" fill="none" stroke="#3a332b" stroke-width="1.1" opacity="0.28"/><circle cx="500" cy="500" r="418.0" fill="none" stroke="#3a332b" stroke-width="1.1" opacity="0.55"/><circle cx="500" cy="500" r="424.5" fill="none" stroke="#3a332b" stroke-width="1.1" opacity="0.28"/><circle cx="500" cy="500" r="431.0" fill="none" stroke="#3a332b" stroke-width="1.1" opacity="0.55"/><circle cx="500" cy="500" r="437.5" fill="none" stroke="#3a332b" stroke-width="1.1" opacity="0.28"/><circle cx="500" cy="500" r="444.0" fill="none" stroke="#3a332b" stroke-width="1.1" opacity="0.55"/><circle cx="500" cy="500" r="450.5" fill="none" stroke="#3a332b" stroke-width="1.1" opacity="0.28"/><circle cx="500" cy="500" r="457.0" fill="none" stroke="#3a332b" stroke-width="1.1" opacity="0.55"/><circle cx="500" cy="500" r="463.5" fill="none" stroke="#3a332b" stroke-width="1.1" opacity="0.28"/><circle cx="500" cy="500" r="470.0" fill="none" stroke="#3a332b" stroke-width="1.1" opacity="0.55"/><circle cx="500" cy="500" r="476.5" fill="none" stroke="#3a332b" stroke-width="1.1" opacity="0.28"/><circle cx="500" cy="500" r="483.0" fill="none" stroke="#3a332b" stroke-width="1.1" opacity="0.55"/><circle cx="500" cy="500" r="489.5" fill="none" stroke="#3a332b" stroke-width="1.1" opacity="0.28"/><circle cx="500" cy="500" r="496" fill="url(#sheen)"/><circle cx="500" cy="500" r="200" fill="none" stroke="#0c0a07" stroke-width="6"/><circle cx="500" cy="500" r="192" fill="url(#lblg)"/><circle cx="500" cy="500" r="192" fill="none" stroke="#7d1f2e" stroke-width="2"/><path id="arcTop" d="M 350 500 A 150 150 0 0 1 650 500" fill="none"/><text font-family="Courier New, monospace" font-size="27" font-weight="bold" letter-spacing="7" fill="#141210" opacity="0.85"><textPath href="#arcTop" startOffset="50%" text-anchor="middle">MONUMENTS</textPath></text><text x="500" y="538" font-family="Georgia, serif" font-weight="bold" font-size="150" letter-spacing="4" fill="#141210" text-anchor="middle">AMR</text><path id="arcBot" d="M 350 500 A 150 150 0 0 0 650 500" fill="none"/><text font-family="Courier New, monospace" font-size="23" letter-spacing="6" fill="#141210" opacity="0.7"><textPath href="#arcBot" startOffset="50%" text-anchor="middle">FIVE RECORDS</textPath></text><circle cx="500" cy="500" r="21" fill="#EAE6DF"/><circle cx="500" cy="500" r="21" fill="none" stroke="#00000030" stroke-width="2"/></svg>