<svg viewBox="0 0 2480 520" xmlns="http://www.w3.org/2000/svg"><defs><radialGradient id="orb" cx="42%" cy="40%" r="62%"><stop offset="0%" stop-color="#C24C5C"/><stop offset="100%" stop-color="#A62D3E"/></radialGradient><radialGradient id="halosoft" cx="50%" cy="50%" r="50%"><stop offset="0%" stop-color="#A62D3E" stop-opacity="0.45"/><stop offset="55%" stop-color="#A62D3E" stop-opacity="0.14"/><stop offset="100%" stop-color="#A62D3E" stop-opacity="0"/></radialGradient></defs><rect width="2480" height="520" fill="#EAE6DF"/><circle cx="360" cy="180" r="150" fill="url(#halosoft)"/><circle cx="770" cy="235" r="120" fill="url(#halosoft)"/><circle cx="1700" cy="215" r="135" fill="url(#halosoft)"/><circle cx="2230" cy="180" r="155" fill="url(#halosoft)"/><circle cx="1240.0" cy="250" r="300" fill="url(#halosoft)"/><g opacity="0.92"><rect x="127" y="92" width="46" height="315" rx="6" fill="#141210" transform="rotate(-4 150 240)"/><circle cx="360" cy="190" r="10" fill="#141210"/><rect x="314" y="248" width="92" height="30" rx="4" fill="#141210"/><rect x="491" y="354" width="138" height="28" rx="4" fill="#141210"/><rect x="500" y="319" width="120" height="28" rx="4" fill="#A62D3E"/><rect x="514" y="284" width="92" height="28" rx="4" fill="#141210"/><rect x="527" y="250" width="67" height="28" rx="4" fill="#141210"/><path d="M 666 304 L 666 200 A 103 103 0 0 1 874 200 L 874 304" fill="none" stroke="#141210" stroke-width="16" stroke-linecap="round" stroke-dasharray="2 30"/><circle cx="770" cy="221" r="18" fill="#A62D3E"/><rect x="2326" y="110" width="48" height="46" rx="4" fill="#141210"/><rect x="2326" y="168" width="48" height="46" rx="4" fill="#141210"/><rect x="2326" y="226" width="48" height="46" rx="4" fill="#141210"/><rect x="2326" y="284" width="48" height="46" rx="4" fill="#141210"/><rect x="2326" y="342" width="48" height="46" rx="4" fill="#141210"/><circle cx="2210" cy="170" r="80" fill="#141210"/><circle cx="2240" cy="161" r="80" fill="#EAE6DF"/><path d="M 2050 173 L 2118 327 L 1982 327 Z" fill="#141210"/><rect x="1853" y="92" width="55" height="315" rx="6" fill="#141210"/><rect x="1844" y="246" width="71" height="10" fill="#A62D3E"/><path d="M 1663 146 C 1663 192 1641 214 1641 267 C 1641 320 1667 344 1700 344 C 1733 344 1759 320 1759 267 C 1759 214 1737 192 1737 146 Z" fill="#141210"/></g><circle cx="360" cy="180" r="30" fill="url(#orb)"/><circle cx="360" cy="180" r="12" fill="#141210"/><circle cx="2230" cy="180" r="30" fill="url(#orb)"/><circle cx="2230" cy="180" r="12" fill="#141210"/><circle cx="372" cy="429" r="1.4" fill="#141210" opacity="0.70"/><circle cx="2196" cy="67" r="3.1" fill="#141210" opacity="0.75"/><circle cx="138" cy="204" r="3.6" fill="#141210" opacity="0.68"/><circle cx="1780" cy="102" r="2.1" fill="#141210" opacity="0.54"/><circle cx="1255" cy="455" r="3.2" fill="#141210" opacity="0.81"/><circle cx="961" cy="373" r="1.7" fill="#141210" opacity="0.62"/><circle cx="1658" cy="364" r="2.7" fill="#141210" opacity="0.54"/><circle cx="680" cy="127" r="2.3" fill="#141210" opacity="0.82"/><circle cx="519" cy="438" r="4.1" fill="#141210" opacity="0.52"/><circle cx="96" cy="225" r="4.2" fill="#141210" opacity="0.54"/><circle cx="1472" cy="86" r="3.2" fill="#141210" opacity="0.86"/><circle cx="527" cy="34" r="1.7" fill="#141210" opacity="0.72"/><circle cx="82" cy="69" r="2.9" fill="#141210" opacity="0.87"/><circle cx="1573" cy="73" r="3.2" fill="#141210" opacity="0.57"/><circle cx="1501" cy="471" r="1.6" fill="#141210" opacity="0.72"/><circle cx="1495" cy="99" r="2.2" fill="#141210" opacity="0.90"/><circle cx="2435" cy="86" r="3.6" fill="#141210" opacity="0.88"/><circle cx="608" cy="311" r="1.5" fill="#141210" opacity="0.65"/><circle cx="1658" cy="302" r="3.8" fill="#141210" opacity="0.53"/><circle cx="873" cy="427" r="3.2" fill="#141210" opacity="0.68"/><circle cx="1005" cy="484" r="3.2" fill="#141210" opacity="0.51"/><circle cx="1958" cy="181" r="2.7" fill="#141210" opacity="0.59"/><circle cx="253" cy="320" r="1.7" fill="#141210" opacity="0.81"/><circle cx="101" cy="389" r="3.9" fill="#141210" opacity="0.70"/><circle cx="1743" cy="144" r="3.7" fill="#141210" opacity="0.67"/><circle cx="594" cy="473" r="2.6" fill="#141210" opacity="0.65"/><circle cx="2104" cy="200" r="3.5" fill="#141210" opacity="0.57"/><circle cx="2064" cy="149" r="1.6" fill="#141210" opacity="0.89"/><circle cx="455" cy="465" r="4.5" fill="#141210" opacity="0.74"/><circle cx="68" cy="58" r="2.0" fill="#141210" opacity="0.66"/><circle cx="1508" cy="475" r="2.5" fill="#141210" opacity="0.56"/><circle cx="1389" cy="93" r="1.7" fill="#141210" opacity="0.72"/><circle cx="1710" cy="60" r="2.8" fill="#141210" opacity="0.78"/><circle cx="1874" cy="206" r="4.2" fill="#141210" opacity="0.57"/><circle cx="1757" cy="385" r="4.1" fill="#141210" opacity="0.70"/><circle cx="278" cy="52" r="3.0" fill="#141210" opacity="0.57"/><circle cx="1551" cy="69" r="3.8" fill="#141210" opacity="0.59"/><circle cx="71" cy="111" r="2.8" fill="#141210" opacity="0.72"/><circle cx="972" cy="110" r="2.9" fill="#141210" opacity="0.88"/><circle cx="1325" cy="463" r="1.5" fill="#141210" opacity="0.90"/><circle cx="2174" cy="280" r="3.0" fill="#141210" opacity="0.71"/><circle cx="2223" cy="60" r="3.4" fill="#141210" opacity="0.72"/><circle cx="761" cy="363" r="3.6" fill="#141210" opacity="0.54"/><circle cx="1719" cy="239" r="2.9" fill="#141210" opacity="0.75"/><circle cx="167" cy="307" r="2.6" fill="#141210" opacity="0.85"/><circle cx="595" cy="409" r="3.7" fill="#141210" opacity="0.75"/><circle cx="2142" cy="47" r="3.3" fill="#141210" opacity="0.75"/><circle cx="1667" cy="217" r="1.6" fill="#141210" opacity="0.58"/><circle cx="1499" cy="113" r="1.6" fill="#141210" opacity="0.64"/><circle cx="102" cy="387" r="2.4" fill="#141210" opacity="0.81"/><circle cx="61" cy="469" r="3.2" fill="#141210" opacity="0.89"/><circle cx="2407" cy="413" r="1.7" fill="#141210" opacity="0.64"/><circle cx="595" cy="389" r="2.0" fill="#141210" opacity="0.59"/><circle cx="305" cy="85" r="4.3" fill="#141210" opacity="0.89"/><circle cx="934" cy="371" r="2.8" fill="#141210" opacity="0.71"/><circle cx="927" cy="322" r="2.1" fill="#141210" opacity="0.60"/><circle cx="1283" cy="121" r="2.8" fill="#141210" opacity="0.88"/><circle cx="93" cy="77" r="3.9" fill="#141210" opacity="0.52"/><circle cx="643" cy="422" r="3.3" fill="#141210" opacity="0.59"/><circle cx="181" cy="157" r="2.3" fill="#141210" opacity="0.82"/><circle cx="2381" cy="392" r="4.2" fill="#141210" opacity="0.87"/><circle cx="2144" cy="453" r="4.4" fill="#141210" opacity="0.54"/><circle cx="802" cy="144" r="3.3" fill="#141210" opacity="0.70"/><circle cx="873" cy="415" r="2.6" fill="#141210" opacity="0.58"/><circle cx="703" cy="242" r="3.3" fill="#141210" opacity="0.73"/><rect x="910.0" y="212" width="660" height="150" fill="#EAE6DF" opacity="0.72"/><text x="1240.0" y="300" font-family="Georgia, serif" font-weight="bold" font-size="118" letter-spacing="14" fill="#141210" text-anchor="middle">AMR</text><line x1="1090.0" y1="322" x2="1390.0" y2="322" stroke="#A62D3E" stroke-width="3"/><text x="1240.0" y="352" font-family="Courier New, monospace" font-size="19" letter-spacing="8" fill="#6E675E" text-anchor="middle">MONUMENTS<tspan fill="#A62D3E">  ·  </tspan>FIVE RECORDS<tspan fill="#A62D3E">  ·  </tspan>ONE SOUND</text><text x="70" y="60" font-family="Courier New, monospace" font-size="24" letter-spacing="6" fill="#6E675E">AMR — MORELIA, MX</text><text x="2410" y="60" font-family="Courier New, monospace" font-size="24" letter-spacing="6" fill="#A62D3E" text-anchor="end">EST. MMXXVI</text></svg>